<mxfile host="app.diagrams.net" modified="2024-06-02T15:25:34.746Z" agent="Mozilla/5.0 (Windows NT 10.0; Win64; x64) AppleWebKit/537.36 (KHTML, like Gecko) Chrome/125.0.0.0 Safari/537.36 Edg/125.0.0.0" version="24.4.13" etag="SEzZsl0s2f05Itsy2EXD" type="github">
  <diagram name="PÃ¡gina-1" id="u0e0ZY7AwK3ZLRVfxroc">
    <mxGraphModel>
      <root>
        <mxCell id="0" />
        <mxCell id="1" parent="0" />
      </root>
    </mxGraphModel>
  </diagram>
</mxfile>
